<svg xmlns="http://www.w3.org/2000/svg" xmlns:xlink="http://www.w3.org/1999/xlink" width="500" zoomAndPan="magnify" viewBox="0 0 375 149.999998" height="200" preserveAspectRatio="xMidYMid meet" version="1.0"><defs><g/><clipPath id="f101513f8b"><path d="M 7.023438 6.675781 L 367.773438 6.675781 L 367.773438 87.675781 L 7.023438 87.675781 Z M 7.023438 6.675781 " clip-rule="nonzero"/></clipPath><clipPath id="fd90c83281"><path d="M 33 6.675781 L 273 6.675781 L 273 87.675781 L 33 87.675781 Z M 33 6.675781 " clip-rule="nonzero"/></clipPath><clipPath id="d31db11312"><path d="M 239 6.675781 L 285 6.675781 L 285 86 L 239 86 Z M 239 6.675781 " clip-rule="nonzero"/></clipPath><clipPath id="43c72111f6"><path d="M 255 6.675781 L 345 6.675781 L 345 87.675781 L 255 87.675781 Z M 255 6.675781 " clip-rule="nonzero"/></clipPath></defs><g clip-path="url(#f101513f8b)"><path fill="#555588" d="M 18.734375 60.734375 C 18.734375 57.820312 17.742188 55.714844 15.753906 54.476562 C 13.796875 53.238281 10.933594 52.617188 7.167969 52.617188 L 7.167969 41.761719 C 9.035156 41.761719 10.695312 41.628906 12.140625 41.355469 C 13.617188 41.054688 14.851562 40.582031 15.84375 39.949219 C 16.835938 39.300781 17.574219 38.4375 18.058594 37.40625 C 18.570312 36.378906 18.792969 35.140625 18.734375 33.691406 L 18.734375 19.265625 C 18.734375 17.03125 19.019531 15.125 19.59375 13.554688 C 20.167969 11.933594 21.207031 10.652344 22.664062 9.652344 C 24.171875 8.625 26.203125 7.871094 28.765625 7.382812 C 31.324219 6.898438 34.574219 6.675781 38.519531 6.675781 L 38.519531 16.882812 C 37.414062 16.90625 36.316406 17.011719 35.222656 17.199219 C 34.261719 17.382812 33.449219 17.710938 32.738281 18.195312 C 32.09375 18.648438 31.5625 19.285156 31.203125 20.101562 C 30.839844 20.917969 30.660156 21.976562 30.660156 23.277344 L 30.660156 36.835938 C 30.480469 42.507812 26.957031 45.847656 20.09375 46.90625 L 20.09375 47.449219 C 23.554688 47.960938 26.222656 49.070312 28.042969 50.714844 C 29.859375 52.359375 30.753906 54.628906 30.660156 57.46875 L 30.660156 71.03125 C 30.660156 72.332031 30.84375 73.386719 31.203125 74.203125 C 31.566406 75.019531 32.074219 75.65625 32.738281 76.109375 C 33.433594 76.597656 34.261719 76.925781 35.226562 77.109375 C 36.21875 77.289062 37.316406 77.394531 38.523438 77.425781 L 38.523438 87.675781 C 34.578125 87.675781 31.328125 87.433594 28.765625 86.949219 C 26.207031 86.464844 24.175781 85.710938 22.667969 84.679688 C 21.191406 83.683594 20.167969 82.382812 19.59375 80.78125 C 19.023438 79.179688 18.738281 77.257812 18.738281 75.019531 L 18.738281 60.734375 M 356.019531 75.019531 C 356.019531 77.257812 355.734375 79.179688 355.160156 80.78125 C 354.589844 82.382812 353.546875 83.683594 352.042969 84.679688 C 350.566406 85.707031 348.550781 86.464844 345.992188 86.949219 C 343.4375 87.433594 340.183594 87.675781 336.214844 87.675781 L 336.214844 77.425781 C 337.421875 77.390625 338.503906 77.289062 339.46875 77.109375 C 340.433594 76.929688 341.242188 76.59375 341.90625 76.109375 C 342.601562 75.65625 343.128906 75.019531 343.488281 74.203125 C 343.882812 73.386719 344.078125 72.332031 344.078125 71.03125 L 344.078125 57.46875 C 343.984375 54.628906 344.859375 52.375 346.695312 50.714844 C 348.535156 49.054688 351.167969 47.964844 354.601562 47.449219 L 354.601562 46.90625 C 347.765625 45.847656 344.277344 42.488281 344.078125 36.835938 L 344.078125 23.277344 C 344.078125 21.976562 343.882812 20.917969 343.492188 20.101562 C 343.15625 19.308594 342.628906 18.671875 341.910156 18.195312 C 341.265625 17.714844 340.433594 17.378906 339.46875 17.199219 C 338.394531 17.007812 337.308594 16.898438 336.21875 16.882812 L 336.21875 6.675781 C 340.160156 6.675781 343.414062 6.917969 345.972656 7.402344 C 348.535156 7.882812 350.550781 8.640625 352.023438 9.667969 C 353.53125 10.667969 354.570312 11.964844 355.140625 13.570312 C 355.714844 15.140625 356 17.046875 356 19.285156 L 356 33.707031 C 355.96875 35.15625 356.195312 36.394531 356.675781 37.425781 C 357.160156 38.453125 357.898438 39.296875 358.890625 39.964844 C 359.886719 40.597656 361.105469 41.066406 362.550781 41.371094 C 364.027344 41.644531 365.695312 41.777344 367.566406 41.777344 L 367.566406 52.632812 C 363.800781 52.632812 360.925781 53.25 358.9375 54.492188 C 356.980469 55.730469 356 57.820312 356 60.75 L 356 75.039062 " fill-opacity="1" fill-rule="nonzero"/></g><path fill="#000000" d="M 57.84375 77.832031 C 56.816406 77.832031 55.90625 77.761719 55.15625 77.617188 C 54.390625 77.496094 53.726562 77.324219 53.160156 77.101562 L 53.160156 72.253906 C 53.886719 72.445312 54.621094 72.585938 55.367188 72.675781 C 56.207031 72.804688 57.050781 72.863281 57.902344 72.859375 C 58.660156 72.859375 59.40625 72.757812 60.136719 72.558594 C 60.902344 72.378906 61.585938 72.035156 62.191406 71.527344 C 62.816406 71.023438 63.320312 70.324219 63.703125 69.421875 C 64.082031 68.515625 64.277344 67.398438 64.277344 66.027344 L 64.277344 21.703125 L 69.921875 21.703125 L 69.921875 65.433594 C 69.921875 67.539062 69.621094 69.394531 69.019531 70.949219 C 68.433594 72.503906 67.609375 73.789062 66.542969 74.800781 C 65.492188 75.832031 64.226562 76.589844 62.738281 77.074219 C 61.285156 77.582031 59.261719 77.832031 57.46875 77.832031 M 97.988281 61.429688 L 97.746094 61.429688 C 97.082031 62.339844 96.417969 63.128906 95.753906 63.796875 C 95.105469 64.433594 94.378906 64.96875 93.582031 65.402344 C 92.796875 65.828125 91.917969 66.140625 90.953125 66.34375 C 89.988281 66.546875 88.855469 66.644531 87.601562 66.644531 C 86.214844 66.644531 84.9375 66.441406 83.769531 66.039062 C 82.621094 65.671875 81.601562 65.074219 80.71875 64.25 C 79.875 63.441406 79.207031 62.390625 78.726562 61.171875 C 78.242188 59.921875 78 58.445312 78 56.746094 C 78 53.433594 79.15625 50.886719 81.472656 49.109375 C 83.808594 47.328125 87.351562 46.359375 92.101562 46.195312 L 97.65625 45.984375 L 97.65625 43.875 C 97.65625 42.523438 97.503906 41.390625 97.203125 40.480469 C 96.921875 39.574219 96.5 38.859375 95.933594 38.300781 C 95.390625 37.730469 94.710938 37.328125 93.882812 37.085938 C 93.074219 36.839844 92.148438 36.722656 91.101562 36.722656 C 89.503906 36.707031 87.941406 36.949219 86.421875 37.449219 C 84.992188 37.933594 83.613281 38.519531 82.285156 39.207031 L 80.351562 35.050781 C 81.839844 34.242188 83.5 33.558594 85.335938 32.992188 C 87.214844 32.414062 89.136719 32.132812 91.101562 32.140625 C 93.15625 32.140625 94.925781 32.355469 96.417969 32.777344 C 97.925781 33.183594 99.164062 33.839844 100.128906 34.75 C 101.097656 35.640625 101.851562 36.78125 102.335938 38.175781 C 102.816406 39.570312 103.0625 41.257812 103.0625 43.238281 L 103.0625 66.035156 L 99.09375 66.035156 Z M 89.023438 62.171875 C 90.246094 62.171875 91.386719 61.980469 92.433594 61.597656 C 93.480469 61.214844 94.371094 60.636719 95.152344 59.867188 C 95.917969 59.078125 96.511719 58.097656 96.933594 56.925781 C 97.375 55.734375 97.597656 54.339844 97.597656 52.742188 L 97.597656 49.742188 L 93.28125 49.953125 C 91.46875 50.035156 89.949219 50.238281 88.71875 50.5625 C 87.492188 50.882812 86.507812 51.339844 85.761719 51.925781 C 85.042969 52.472656 84.519531 53.171875 84.191406 54.015625 C 83.867188 54.828125 83.707031 55.746094 83.707031 56.773438 C 83.707031 58.636719 84.191406 60.015625 85.15625 60.867188 C 86.125 61.738281 87.414062 62.171875 89.019531 62.171875 M 107.671875 32.753906 L 113.347656 32.753906 L 119.355469 51.273438 L 120.140625 53.867188 L 121.046875 57.078125 L 121.859375 60.15625 L 122.375 62.371094 L 122.582031 62.371094 L 123.097656 60.15625 L 123.910156 57.078125 L 124.816406 53.867188 L 125.601562 51.273438 L 131.609375 32.75 L 137.285156 32.75 L 125.960938 66.039062 L 118.984375 66.039062 Z M 159.742188 61.429688 L 159.5 61.429688 C 158.835938 62.339844 158.171875 63.128906 157.507812 63.796875 C 156.859375 64.433594 156.132812 64.96875 155.335938 65.402344 C 154.546875 65.828125 153.671875 66.140625 152.707031 66.34375 C 151.742188 66.546875 150.609375 66.644531 149.355469 66.644531 C 147.96875 66.644531 146.6875 66.441406 145.519531 66.039062 C 144.371094 65.671875 143.355469 65.074219 142.472656 64.25 C 141.625 63.441406 140.960938 62.390625 140.480469 61.171875 C 139.996094 59.921875 139.753906 58.445312 139.753906 56.746094 C 139.753906 53.433594 140.910156 50.886719 143.226562 49.109375 C 145.558594 47.328125 149.101562 46.359375 153.851562 46.195312 L 159.410156 45.984375 L 159.410156 43.875 C 159.410156 42.523438 159.257812 41.390625 158.957031 40.480469 C 158.675781 39.574219 158.25 38.859375 157.6875 38.300781 C 157.144531 37.730469 156.460938 37.328125 155.632812 37.085938 C 154.828125 36.839844 153.902344 36.722656 152.855469 36.722656 C 151.257812 36.707031 149.695312 36.949219 148.175781 37.449219 C 146.746094 37.933594 145.367188 38.519531 144.039062 39.207031 L 142.105469 35.050781 C 143.59375 34.242188 145.253906 33.558594 147.085938 32.992188 C 148.96875 32.414062 150.890625 32.132812 152.855469 32.140625 C 154.910156 32.140625 156.679688 32.355469 158.167969 32.777344 C 159.679688 33.183594 160.917969 33.839844 161.882812 34.75 C 162.851562 35.640625 163.605469 36.78125 164.085938 38.175781 C 164.570312 39.570312 164.8125 41.257812 164.8125 43.238281 L 164.8125 66.035156 L 160.859375 66.035156 Z M 150.773438 62.1875 C 152 62.1875 153.140625 61.992188 154.1875 61.609375 C 155.234375 61.230469 156.125 60.648438 156.902344 59.882812 C 157.667969 59.09375 158.261719 58.113281 158.683594 56.941406 C 159.128906 55.75 159.351562 54.355469 159.351562 52.757812 L 159.351562 49.753906 L 155.03125 49.96875 C 153.21875 50.050781 151.699219 50.253906 150.472656 50.574219 C 149.246094 50.898438 148.257812 51.351562 147.511719 51.941406 C 146.796875 52.488281 146.273438 53.1875 145.945312 54.03125 C 145.621094 54.839844 145.460938 55.757812 145.460938 56.789062 C 145.460938 58.648438 145.945312 60.03125 146.910156 60.882812 C 147.875 61.75 149.167969 62.1875 150.773438 62.1875 M 198.683594 54.183594 C 198.683594 56.128906 198.332031 57.902344 197.625 59.457031 C 196.941406 60.992188 195.957031 62.296875 194.667969 63.367188 C 193.378906 64.4375 191.808594 65.257812 189.957031 65.824219 C 188.105469 66.371094 186.019531 66.644531 183.707031 66.644531 C 181.472656 66.644531 179.378906 66.460938 177.425781 66.097656 C 175.492188 65.75 173.875 65.238281 172.566406 64.550781 L 172.566406 59.15625 L 174.886719 60.128906 L 177.667969 60.945312 L 180.65625 61.550781 C 181.671875 61.691406 182.695312 61.761719 183.722656 61.765625 C 186.941406 61.765625 189.316406 61.160156 190.847656 59.945312 C 192.394531 58.730469 193.171875 56.992188 193.171875 54.730469 C 193.171875 53.636719 193.019531 52.6875 192.71875 51.878906 C 192.4375 51.066406 191.921875 50.332031 191.179688 49.664062 C 190.453125 48.976562 189.480469 48.320312 188.25 47.695312 C 187.023438 47.046875 185.472656 46.351562 183.601562 45.589844 C 181.824219 44.882812 180.25 44.132812 178.921875 43.285156 C 177.632812 42.4375 176.527344 41.503906 175.664062 40.433594 C 174.804688 39.363281 174.167969 38.167969 173.757812 36.855469 C 173.355469 35.523438 173.15625 34.007812 173.15625 32.308594 C 173.15625 30.53125 173.476562 28.945312 174.125 27.550781 C 174.769531 26.15625 175.671875 24.984375 176.839844 24.035156 C 178.007812 23.0625 179.394531 22.328125 181.007812 21.820312 C 182.617188 21.316406 184.425781 21.0625 186.378906 21.0625 C 188.773438 21.0625 190.929688 21.296875 192.839844 21.761719 C 194.753906 22.203125 196.457031 22.78125 197.945312 23.488281 L 195.921875 28.21875 C 194.628906 27.632812 193.125 27.128906 191.453125 26.703125 C 189.769531 26.253906 188.0625 26.03125 186.320312 26.035156 C 183.867188 26.035156 181.964844 26.613281 180.613281 27.765625 C 179.265625 28.898438 178.589844 30.433594 178.589844 32.371094 C 178.589844 33.503906 178.742188 34.527344 179.042969 35.375 C 179.34375 36.203125 179.847656 36.960938 180.554688 37.648438 C 181.257812 38.316406 182.167969 38.953125 183.332031 39.558594 C 184.730469 40.253906 186.160156 40.878906 187.617188 41.4375 C 189.449219 42.167969 191.050781 42.898438 192.417969 43.683594 C 193.804688 44.449219 194.964844 45.300781 195.890625 46.273438 C 196.820312 47.246094 197.515625 48.371094 197.972656 49.640625 C 198.457031 50.914062 198.710938 52.472656 198.710938 54.214844 M 219.144531 66.609375 C 217.109375 66.609375 215.207031 66.296875 213.4375 65.671875 C 211.660156 65.027344 210.121094 64.015625 208.816406 62.640625 C 207.527344 61.246094 206.484375 59.476562 205.753906 57.335938 C 205.007812 55.171875 204.636719 52.574219 204.636719 49.558594 C 204.636719 46.382812 205.019531 43.695312 205.765625 41.492188 C 206.53125 39.269531 207.578125 37.472656 208.90625 36.097656 C 210.253906 34.707031 211.808594 33.695312 213.617188 33.070312 C 215.421875 32.445312 217.332031 32.128906 219.382812 32.128906 C 220.933594 32.128906 222.460938 32.300781 223.972656 32.644531 C 225.480469 32.992188 226.738281 33.414062 227.746094 33.917969 L 226.132812 38.585938 C 225.628906 38.367188 225.117188 38.175781 224.59375 38.011719 C 224.023438 37.804688 223.4375 37.632812 222.84375 37.496094 C 222.257812 37.335938 221.664062 37.214844 221.0625 37.132812 C 220.480469 37.03125 219.925781 36.980469 219.402344 36.980469 C 216.238281 36.980469 213.9375 38 212.488281 40.058594 C 211.039062 42.078125 210.3125 45.230469 210.3125 49.515625 C 210.3125 53.78125 211.039062 56.902344 212.488281 58.882812 C 213.9375 60.828125 216.199219 61.824219 219.160156 61.824219 C 220.773438 61.824219 222.257812 61.640625 223.570312 61.277344 C 224.894531 60.894531 226.105469 60.46875 227.191406 59.945312 L 227.191406 64.855469 C 226.082031 65.453125 224.914062 65.894531 223.6875 66.1875 C 222.464844 66.492188 220.871094 66.644531 219.078125 66.644531 M 249.085938 32.144531 L 251.046875 32.230469 C 251.675781 32.261719 252.300781 32.332031 252.917969 32.445312 L 252.191406 37.539062 L 250.441406 37.296875 C 249.859375 37.214844 249.304688 37.175781 248.78125 37.175781 C 247.511719 37.175781 246.355469 37.4375 245.308594 37.964844 C 244.257812 38.46875 243.371094 39.207031 242.589844 40.175781 C 241.847656 41.125 241.261719 42.28125 240.839844 43.632812 C 240.4375 44.964844 240.238281 46.449219 240.238281 48.085938 L 240.238281 66.035156 L 234.742188 66.035156 L 234.742188 32.753906 L 239.210938 32.753906 L 239.875 38.84375 L 240.117188 38.84375 L 241.71875 36.328125 C 242.273438 35.546875 242.917969 34.84375 243.652344 34.222656 C 244.375 33.59375 245.179688 33.101562 246.066406 32.738281 C 246.953125 32.355469 248.050781 32.160156 249.179688 32.160156 " fill-opacity="1" fill-rule="nonzero"/><g clip-path="url(#fd90c83281)"><path stroke-linecap="butt" transform="matrix(1.613484, 0, 0, 1.62, -8.963611, -1.424896)" fill="none" stroke-linejoin="miter" d="M 41.405658 48.924036 C 40.768934 48.924036 40.204841 48.880633 39.740008 48.791416 C 39.265491 48.716667 38.853921 48.610571 38.502875 48.473129 L 38.502875 45.480748 C 38.953182 45.5989 39.408331 45.685706 39.870742 45.741165 C 40.391258 45.820737 40.914195 45.856906 41.441973 45.854494 C 41.911648 45.854494 42.37406 45.791801 42.826787 45.668827 C 43.301304 45.557909 43.72498 45.345717 44.100235 45.032253 C 44.487596 44.721199 44.799905 44.289583 45.037164 43.73258 C 45.272001 43.173167 45.393051 42.483545 45.393051 41.63719 L 45.393051 14.276558 L 48.891401 14.276558 L 48.891401 41.270678 C 48.891401 42.57035 48.704984 43.715702 48.332149 44.675385 C 47.968999 45.635069 47.458167 46.428375 46.797233 47.052893 C 46.145983 47.689467 45.361578 48.157253 44.439176 48.45625 C 43.538562 48.769715 42.284483 48.924036 41.173242 48.924036 M 66.286311 38.799131 L 66.136209 38.799131 C 65.724638 39.360956 65.313068 39.848031 64.901497 40.260358 C 64.49961 40.653394 64.049304 40.983737 63.555419 41.251388 C 63.068797 41.514216 62.524072 41.707117 61.926084 41.832503 C 61.328096 41.957889 60.626005 42.01817 59.848863 42.01817 C 58.989406 42.01817 58.197738 41.892785 57.473858 41.644424 C 56.762083 41.417765 56.130201 41.048842 55.583055 40.540065 C 55.060118 40.040933 54.646126 39.392302 54.348343 38.639987 C 54.048138 37.868382 53.898036 36.956924 53.898036 35.908023 C 53.898036 33.86327 54.614653 32.291124 56.050308 31.193998 C 57.498068 30.094461 59.693918 29.496467 62.637859 29.395194 L 66.080526 29.264986 L 66.080526 27.962902 C 66.080526 27.128604 65.986106 26.429337 65.799689 25.867512 C 65.625377 25.308099 65.363909 24.866837 65.012863 24.522026 C 64.676344 24.169981 64.255089 23.921621 63.741836 23.772122 C 63.240689 23.620213 62.666911 23.547875 62.018082 23.547875 C 61.027891 23.53823 60.05949 23.687728 59.11772 23.99637 C 58.231632 24.295367 57.377018 24.657057 56.553877 25.08144 L 55.35548 22.515853 C 56.277883 22.016721 57.306809 21.59475 58.444681 21.245116 C 59.609183 20.888249 60.800317 20.714638 62.018082 20.71946 C 63.29153 20.71946 64.388244 20.85208 65.313068 21.112496 C 66.247575 21.363268 67.015033 21.768361 67.613021 22.330186 C 68.21343 22.879954 68.680683 23.584044 68.980888 24.444866 C 69.278671 25.305688 69.431194 26.347354 69.431194 27.569866 L 69.431194 41.642013 L 66.971455 41.642013 Z M 60.730108 39.257271 C 61.487882 39.257271 62.194815 39.139119 62.843644 38.902815 C 63.492473 38.666511 64.044462 38.309644 64.528662 37.834624 C 65.003179 37.347549 65.371172 36.742321 65.63264 36.018941 C 65.906213 35.283505 66.044211 34.422683 66.044211 33.436476 L 66.044211 31.584624 L 63.369002 31.714832 C 62.245656 31.765468 61.303886 31.890854 60.54127 32.090989 C 59.781075 32.288713 59.170982 32.570831 58.70857 32.932521 C 58.263105 33.270098 57.938691 33.701715 57.735327 34.222548 C 57.534383 34.724092 57.435122 35.290739 57.435122 35.924902 C 57.435122 37.075076 57.735327 37.926252 58.333315 38.451908 C 58.933723 38.989621 59.732655 39.257271 60.727687 39.257271 M 72.287978 21.098029 L 75.805697 21.098029 L 79.5292 32.52984 L 80.015822 34.13092 L 80.577494 36.112981 L 81.081063 38.013058 L 81.400635 39.380246 L 81.528949 39.380246 L 81.848521 38.013058 L 82.35209 36.112981 L 82.913763 34.13092 L 83.400384 32.52984 L 87.123888 21.095618 L 90.641606 21.095618 L 83.623117 41.644424 L 79.299204 41.644424 Z M 104.559955 38.799131 L 104.409852 38.799131 C 103.998282 39.360956 103.586711 39.848031 103.175141 40.260358 C 102.773254 40.653394 102.322947 40.983737 101.829063 41.251388 C 101.34002 41.514216 100.797715 41.707117 100.199727 41.832503 C 99.601739 41.957889 98.899648 42.01817 98.122506 42.01817 C 97.26305 42.01817 96.468961 41.892785 95.745081 41.644424 C 95.033306 41.417765 94.403845 41.048842 93.856698 40.540065 C 93.331341 40.040933 92.91977 39.392302 92.621987 38.639987 C 92.321782 37.868382 92.17168 36.956924 92.17168 35.908023 C 92.17168 33.86327 92.888297 32.291124 94.323952 31.193998 C 95.769291 30.094461 97.965141 29.496467 100.909081 29.395194 L 104.354169 29.264986 L 104.354169 27.962902 C 104.354169 27.128604 104.25975 26.429337 104.073333 25.867512 C 103.899021 25.308099 103.635131 24.866837 103.286507 24.522026 C 102.949987 24.169981 102.526312 23.921621 102.013059 23.772122 C 101.514332 23.620213 100.940554 23.547875 100.291725 23.547875 C 99.301535 23.53823 98.333134 23.687728 97.391363 23.99637 C 96.505276 24.295367 95.650662 24.657057 94.827521 25.08144 L 93.629124 22.515853 C 94.551526 22.016721 95.580453 21.59475 96.715903 21.245116 C 97.882827 20.888249 99.073961 20.714638 100.291725 20.71946 C 101.565173 20.71946 102.661888 20.85208 103.58429 21.112496 C 104.521219 21.363268 105.288677 21.768361 105.886664 22.330186 C 106.487073 22.879954 106.954327 23.584044 107.25211 24.444866 C 107.552315 25.305688 107.702417 26.347354 107.702417 27.569866 L 107.702417 41.642013 L 105.252362 41.642013 Z M 99.001331 39.266916 C 99.761526 39.266916 100.468459 39.146353 101.117288 38.910049 C 101.766117 38.676156 102.318105 38.316878 102.799885 37.844269 C 103.274402 37.357194 103.642394 36.751966 103.903863 36.028586 C 104.179857 35.29315 104.317854 34.432328 104.317854 33.446121 L 104.317854 31.591857 L 101.640224 31.724477 C 100.516879 31.775114 99.575108 31.900499 98.814913 32.098223 C 98.054718 32.298358 97.442204 32.578065 96.979793 32.942166 C 96.536749 33.279743 96.212335 33.71136 96.00897 34.232193 C 95.808027 34.731325 95.708766 35.297973 95.708766 35.934547 C 95.708766 37.082309 96.00897 37.935898 96.606958 38.461553 C 97.204946 38.996854 98.006298 39.266916 99.001331 39.266916 M 128.694938 34.326233 C 128.694938 35.527043 128.477048 36.621758 128.038846 37.581441 C 127.615171 38.529069 127.005078 39.334432 126.206146 39.995118 C 125.407215 40.655805 124.433972 41.162171 123.286416 41.511805 C 122.138861 41.849382 120.846045 42.01817 119.412811 42.01817 C 118.027997 42.01817 116.730339 41.904841 115.519837 41.680593 C 114.321441 41.465991 113.319145 41.150115 112.508109 40.725732 L 112.508109 37.395774 L 113.946185 37.996179 L 115.669939 38.500134 L 117.522007 38.87388 C 118.151468 38.960685 118.785771 39.004088 119.422495 39.0065 C 121.417402 39.0065 122.889372 38.632753 123.838405 37.88285 C 124.797122 37.132946 125.278902 36.059933 125.278902 34.66381 C 125.278902 33.988655 125.184483 33.402718 124.998066 32.903586 C 124.823754 32.402043 124.504181 31.948725 124.04419 31.536398 C 123.593884 31.112015 122.991054 30.706923 122.228438 30.32112 C 121.468243 29.92085 120.507104 29.491645 119.347444 29.021448 C 118.245887 28.585009 117.270223 28.122046 116.447082 27.598801 C 115.64815 27.075557 114.963006 26.499264 114.427965 25.838577 C 113.895344 25.17789 113.50072 24.440043 113.246515 23.629858 C 112.997152 22.807616 112.87368 21.872045 112.87368 20.823144 C 112.87368 19.726019 113.072203 18.747045 113.474089 17.886223 C 113.873555 17.025401 114.432807 16.302021 115.156687 15.716084 C 115.880567 15.115678 116.740023 14.66236 117.739897 14.348896 C 118.737351 14.037843 119.858275 13.88111 121.068777 13.88111 C 122.552852 13.88111 123.889246 14.025786 125.073117 14.312727 C 126.259409 14.5852 127.314966 14.942067 128.237368 15.378506 L 126.983289 18.298549 C 126.181936 17.936859 125.24985 17.625806 124.213661 17.362978 C 123.170208 17.085683 122.11223 16.94824 121.032462 16.950652 C 119.512072 16.950652 118.333043 17.307519 117.495376 18.018842 C 116.66013 18.718109 116.241296 19.665737 116.241296 20.861725 C 116.241296 21.560992 116.335715 22.192743 116.522133 22.715988 C 116.70855 23.227176 117.020859 23.694962 117.459061 24.119345 C 117.894842 24.531671 118.458935 24.924708 119.180394 25.298454 C 120.047114 25.727659 120.933201 26.113462 121.836235 26.458273 C 122.971686 26.909179 123.964297 27.360086 124.811649 27.84475 C 125.671105 28.317358 126.390143 28.843014 126.963921 29.44342 C 127.540119 30.043825 127.971058 30.738269 128.254315 31.521931 C 128.55452 32.308003 128.711885 33.270098 128.711885 34.345523 M 141.376154 41.996469 C 140.114811 41.996469 138.935783 41.803568 137.839068 41.417765 C 136.737512 41.019906 135.783636 40.395389 134.975021 39.546623 C 134.17609 38.685801 133.529682 37.593498 133.076954 36.272124 C 132.614543 34.936283 132.384547 33.332791 132.384547 31.471294 C 132.384547 29.510935 132.621806 27.851984 133.084217 26.49203 C 133.558734 25.12002 134.207563 24.010838 135.030704 23.162072 C 135.86595 22.303662 136.82951 21.679144 137.950434 21.293341 C 139.068938 20.907539 140.252809 20.712226 141.523835 20.712226 C 142.484974 20.712226 143.431586 20.818322 144.368514 21.030513 C 145.303022 21.245116 146.082585 21.505533 146.707204 21.816586 L 145.707329 24.698049 C 145.39502 24.563018 145.077868 24.444866 144.753454 24.343592 C 144.399987 24.215795 144.036837 24.1097 143.668844 24.025305 C 143.305694 23.926444 142.937701 23.851694 142.564867 23.801058 C 142.204137 23.738365 141.860355 23.707018 141.53594 23.707018 C 139.574928 23.707018 138.148957 24.336359 137.250764 25.607096 C 136.352572 26.85372 135.902265 28.799612 135.902265 31.44477 C 135.902265 34.077872 136.352572 36.004474 137.250764 37.226985 C 138.148957 38.427796 139.550718 39.042668 141.385838 39.042668 C 142.385713 39.042668 143.305694 38.929339 144.119151 38.705091 C 144.939871 38.468787 145.690382 38.205959 146.363421 37.88285 L 146.363421 40.913811 C 145.675856 41.282734 144.951976 41.555207 144.191781 41.736052 C 143.434007 41.924131 142.446238 42.01817 141.334997 42.01817 M 159.933146 20.721871 L 161.148489 20.774919 C 161.538271 20.794209 161.925632 20.837612 162.30815 20.907539 L 161.857843 24.051829 L 160.773234 23.902331 C 160.412504 23.851694 160.068722 23.827582 159.744307 23.827582 C 158.957481 23.827582 158.240864 23.989136 157.592035 24.314657 C 156.940785 24.625711 156.391218 25.08144 155.907017 25.679434 C 155.447026 26.265371 155.083876 26.979106 154.822407 27.813404 C 154.573044 28.635646 154.449573 29.551927 154.449573 30.562247 L 154.449573 41.642013 L 151.043221 41.642013 L 151.043221 21.098029 L 153.812849 21.098029 L 154.22442 24.857192 L 154.374522 24.857192 L 155.367133 23.304337 C 155.710916 22.822084 156.110381 22.388056 156.56553 22.004665 C 157.013416 21.616451 157.512142 21.312631 158.06171 21.088384 C 158.611278 20.85208 159.29158 20.731516 159.99125 20.731516 " stroke="#000000" stroke-width="2.129" stroke-opacity="1" stroke-miterlimit="4"/></g><path fill="#000000" d="M 264.539062 66.039062 L 259.035156 66.039062 L 259.035156 32.75 L 264.53125 32.75 L 264.53125 66.039062 M 259.511719 21.09375 C 260.136719 20.546875 260.902344 20.273438 261.808594 20.273438 C 262.25 20.273438 262.664062 20.34375 263.046875 20.488281 C 263.4375 20.601562 263.78125 20.804688 264.070312 21.09375 C 264.375 21.378906 264.605469 21.742188 264.765625 22.1875 C 264.945312 22.609375 265.035156 23.125 265.035156 23.730469 C 265.035156 24.90625 264.714844 25.78125 264.070312 26.371094 C 263.445312 26.9375 262.6875 27.21875 261.804688 27.21875 C 260.898438 27.21875 260.109375 26.792969 259.484375 26.226562 C 258.882812 25.660156 258.597656 24.78125 258.597656 23.660156 C 258.601562 22.515625 258.902344 21.640625 259.507812 21.09375 Z M 259.511719 21.09375 " fill-opacity="1" fill-rule="nonzero"/><g clip-path="url(#d31db11312)"><path stroke-linecap="square" transform="matrix(1.613484, 0, 0, 1.62, -8.963611, -1.424896)" fill="none" stroke-linejoin="miter" d="M 169.510635 41.644424 L 166.099441 41.644424 L 166.099441 21.095618 L 169.505793 21.095618 L 169.505793 41.644424 M 166.394804 13.900401 C 166.782164 13.562823 167.256681 13.394035 167.818354 13.394035 C 168.091927 13.394035 168.348554 13.437437 168.585812 13.526654 C 168.827912 13.596581 169.040961 13.721967 169.220115 13.900401 C 169.408953 14.076423 169.551792 14.300671 169.651054 14.575555 C 169.76242 14.835972 169.818103 15.154259 169.818103 15.528005 C 169.818103 16.253796 169.619581 16.793919 169.220115 17.158021 C 168.832754 17.507654 168.36308 17.681265 167.815933 17.681265 C 167.25426 17.681265 166.765217 17.418437 166.377857 17.068804 C 166.005022 16.71917 165.828289 16.176635 165.828289 15.484602 C 165.83071 14.778101 166.017127 14.237978 166.392383 13.900401 Z M 166.394804 13.900401 " stroke="#000000" stroke-width="2.129" stroke-opacity="1" stroke-miterlimit="4"/></g><path fill="#000000" d="M 289.742188 66.644531 C 288.554688 66.644531 287.476562 66.515625 286.511719 66.25 C 285.546875 65.988281 284.667969 65.644531 283.882812 65.21875 C 283.117188 64.777344 282.433594 64.257812 281.828125 63.671875 C 281.257812 63.101562 280.734375 62.484375 280.261719 61.824219 L 279.898438 61.824219 L 280.078125 63.792969 L 280.199219 65.414062 L 280.257812 66.71875 L 280.257812 80.9375 L 274.761719 80.9375 L 274.761719 32.75 L 279.230469 32.75 L 280.019531 37.238281 L 280.261719 37.238281 C 280.722656 36.53125 281.246094 35.875 281.828125 35.269531 C 282.425781 34.632812 283.097656 34.097656 283.851562 33.660156 C 284.640625 33.195312 285.515625 32.832031 286.480469 32.570312 C 287.449219 32.285156 288.535156 32.144531 289.738281 32.144531 C 291.632812 32.144531 293.351562 32.507812 294.902344 33.238281 C 296.496094 33.992188 297.8125 35.082031 298.855469 36.511719 C 299.964844 37.945312 300.820312 39.75 301.4375 41.875 C 302.058594 44 302.34375 46.503906 302.34375 49.335938 C 302.34375 52.1875 302.039062 54.691406 301.4375 56.851562 C 300.835938 58.992188 299.976562 60.792969 298.855469 62.246094 C 297.769531 63.699219 296.4375 64.800781 294.902344 65.550781 C 293.355469 66.28125 291.25 66.644531 289.359375 66.644531 M 288.683594 36.722656 C 287.152344 36.722656 285.855469 36.953125 284.789062 37.417969 C 283.730469 37.882812 282.875 38.589844 282.21875 39.539062 C 281.574219 40.488281 281.089844 41.671875 280.769531 43.105469 C 280.46875 44.519531 280.296875 46.183594 280.257812 48.105469 L 280.257812 49.347656 C 280.257812 51.390625 280.386719 53.210938 280.648438 54.804688 C 280.933594 56.382812 281.394531 57.714844 282.039062 58.808594 C 282.683594 59.871094 283.5625 60.691406 284.664062 61.261719 C 285.753906 61.808594 287.109375 62.082031 288.742188 62.082031 C 291.457031 62.082031 293.453125 60.980469 294.71875 58.777344 C 296.003906 56.574219 296.652344 53.410156 296.652344 49.289062 C 296.652344 45.082031 296.003906 41.941406 294.71875 39.859375 C 293.449219 37.777344 291.4375 36.738281 288.679688 36.738281 M 320.660156 62.128906 C 321.019531 62.128906 321.421875 62.09375 321.867188 62.066406 L 323.195312 61.914062 L 324.324219 61.699219 L 325.140625 61.484375 L 325.140625 65.671875 C 324.878906 65.792969 324.546875 65.914062 324.144531 66.035156 C 323.738281 66.15625 323.296875 66.253906 322.816406 66.339844 C 322.316406 66.441406 321.8125 66.511719 321.304688 66.550781 C 320.792969 66.613281 320.28125 66.640625 319.765625 66.640625 C 318.585938 66.652344 317.425781 66.488281 316.292969 66.15625 C 315.226562 65.835938 314.300781 65.28125 313.515625 64.488281 C 312.75 63.699219 312.148438 62.640625 311.703125 61.304688 C 311.261719 59.949219 311.039062 58.253906 311.039062 56.210938 L 311.039062 36.902344 L 306.359375 36.902344 L 306.359375 34.445312 L 311.039062 32.078125 L 313.394531 25.109375 L 316.566406 25.109375 L 316.566406 32.746094 L 324.898438 32.746094 L 324.898438 36.902344 L 316.566406 36.902344 L 316.566406 56.210938 C 316.566406 58.15625 316.875 59.644531 317.5 60.636719 C 318.144531 61.609375 319.191406 62.121094 320.640625 62.121094 " fill-opacity="1" fill-rule="nonzero"/><g clip-path="url(#43c72111f6)"><path stroke-linecap="butt" transform="matrix(1.613484, 0, 0, 1.62, -8.963611, -1.424896)" fill="none" stroke-linejoin="miter" d="M 185.13095 42.01817 C 184.394965 42.01817 183.726768 41.938599 183.12878 41.774633 C 182.530792 41.613078 181.986066 41.400886 181.499444 41.138058 C 181.024928 40.865585 180.601252 40.544887 180.225997 40.183197 C 179.87253 39.831152 179.548116 39.450172 179.255174 39.042668 L 179.030021 39.042668 L 179.141387 40.257946 L 179.216438 41.258622 L 179.252753 42.063984 L 179.252753 50.840992 L 175.846401 50.840992 L 175.846401 21.095618 L 178.616029 21.095618 L 179.105072 23.866162 L 179.255174 23.866162 C 179.540853 23.429723 179.865267 23.02463 180.225997 22.650884 C 180.59641 22.257848 181.012823 21.927504 181.480076 21.657442 C 181.969119 21.370502 182.511424 21.146254 183.109412 20.984699 C 183.709821 20.808677 184.38286 20.721871 185.128529 20.721871 C 186.302715 20.721871 187.367957 20.946119 188.329095 21.397026 C 189.316865 21.8624 190.132743 22.535143 190.779151 23.417666 C 191.466716 24.302601 191.996915 25.416606 192.379434 26.728334 C 192.764374 28.040063 192.941107 29.585684 192.941107 31.333852 C 192.941107 33.094076 192.752269 34.639697 192.379434 35.973127 C 192.006599 37.294501 191.473979 38.406094 190.779151 39.303085 C 190.106112 40.200076 189.28055 40.880053 188.329095 41.343016 C 187.370378 41.793923 186.065457 42.01817 184.893691 42.01817 M 184.474858 23.547875 C 183.525824 23.547875 182.722051 23.690139 182.061117 23.97708 C 181.405025 24.264021 180.874826 24.70046 180.468097 25.286397 C 180.068631 25.872335 179.768427 26.602948 179.569905 27.487883 C 179.383487 28.360761 179.276963 29.38796 179.252753 30.574303 L 179.252753 31.341086 C 179.252753 32.602178 179.332646 33.725828 179.494854 34.709624 C 179.671587 35.683775 179.957265 36.506017 180.356731 37.181171 C 180.756196 37.837036 181.300922 38.343401 181.983645 38.695446 C 182.659105 39.033023 183.499193 39.201812 184.511173 39.201812 C 186.19377 39.201812 187.430903 38.521835 188.215308 37.161881 C 189.011818 35.801927 189.413705 33.848802 189.413705 31.304917 C 189.413705 28.707983 189.011818 26.769326 188.215308 25.484121 C 187.428482 24.198917 186.181665 23.55752 184.472437 23.55752 M 204.293192 39.230747 C 204.515924 39.230747 204.765288 39.209046 205.041282 39.192167 L 205.864423 39.098128 L 206.564093 38.965508 L 207.070083 38.832888 L 207.070083 41.417765 C 206.907876 41.492515 206.70209 41.567264 206.452727 41.642013 C 206.200943 41.716762 205.927369 41.777044 205.629586 41.830092 C 205.319698 41.892785 205.007388 41.936187 204.692658 41.9603 C 204.375506 41.99888 204.058355 42.015759 203.738782 42.015759 C 203.007639 42.022993 202.288601 41.92172 201.58651 41.716762 C 200.925576 41.519038 200.351798 41.176639 199.865177 40.687152 C 199.39066 40.200076 199.017826 39.546623 198.741831 38.72197 C 198.468258 37.885261 198.330261 36.838772 198.330261 35.57768 L 198.330261 23.658793 L 195.429898 23.658793 L 195.429898 22.142107 L 198.330261 20.68088 L 199.790126 16.379182 L 201.75598 16.379182 L 201.75598 21.093206 L 206.919981 21.093206 L 206.919981 23.658793 L 201.75598 23.658793 L 201.75598 35.57768 C 201.75598 36.77849 201.94724 37.697182 202.3346 38.309644 C 202.734066 38.910049 203.382895 39.225925 204.281087 39.225925 " stroke="#000000" stroke-width="2.129" stroke-opacity="1" stroke-miterlimit="4"/></g><g fill="#555588" fill-opacity="1"><g transform="translate(66.287954, 122.193354)"><g><path d="M 2 -10 L 2 -21.53125 C 2 -25.0625 2.960938 -27.648438 4.890625 -29.296875 C 6.816406 -30.953125 9.332031 -31.78125 12.4375 -31.78125 C 15.625 -31.78125 18.238281 -31.007812 20.28125 -29.46875 C 22.320312 -27.9375 23.34375 -25.828125 23.34375 -23.140625 C 23.34375 -21.890625 23.082031 -21.039062 22.5625 -20.59375 C 22.039062 -20.144531 21.171875 -19.921875 19.953125 -19.921875 C 17.785156 -19.921875 16.65625 -20.597656 16.5625 -21.953125 C 16.476562 -24.566406 15.191406 -25.875 12.703125 -25.875 C 10.085938 -25.875 8.78125 -24.425781 8.78125 -21.53125 L 8.78125 -10 C 8.78125 -7.101562 10.097656 -5.65625 12.734375 -5.65625 C 13.546875 -5.65625 14.21875 -5.785156 14.75 -6.046875 C 15.289062 -6.304688 15.675781 -6.703125 15.90625 -7.234375 C 16.144531 -7.773438 16.300781 -8.21875 16.375 -8.5625 C 16.445312 -8.914062 16.507812 -9.394531 16.5625 -10 C 16.675781 -11.363281 17.796875 -12.046875 19.921875 -12.046875 C 21.160156 -12.046875 22.039062 -11.820312 22.5625 -11.375 C 23.082031 -10.925781 23.34375 -10.078125 23.34375 -8.828125 C 23.34375 -6.015625 22.320312 -3.796875 20.28125 -2.171875 C 18.238281 -0.546875 15.625 0.265625 12.4375 0.265625 C 9.332031 0.265625 6.816406 -0.5625 4.890625 -2.21875 C 2.960938 -3.875 2 -6.46875 2 -10 Z M 2 -10 "/></g></g></g><g fill="#555588" fill-opacity="1"><g transform="translate(93.720616, 122.193354)"><g><path d="M 2.34375 -2.09375 L 2.34375 -29.75 C 2.34375 -30.414062 2.675781 -30.921875 3.34375 -31.265625 C 4.007812 -31.609375 4.804688 -31.78125 5.734375 -31.78125 C 6.660156 -31.78125 7.457031 -31.609375 8.125 -31.265625 C 8.789062 -30.921875 9.125 -30.414062 9.125 -29.75 L 9.125 -19.09375 L 17.78125 -19.09375 L 17.78125 -29.75 C 17.78125 -30.414062 18.113281 -30.921875 18.78125 -31.265625 C 19.445312 -31.609375 20.242188 -31.78125 21.171875 -31.78125 C 22.097656 -31.78125 22.894531 -31.609375 23.5625 -31.265625 C 24.226562 -30.921875 24.5625 -30.414062 24.5625 -29.75 L 24.5625 -2.09375 C 24.5625 -1.425781 24.226562 -0.910156 23.5625 -0.546875 C 22.894531 -0.179688 22.097656 0 21.171875 0 C 20.242188 0 19.445312 -0.179688 18.78125 -0.546875 C 18.113281 -0.910156 17.78125 -1.425781 17.78125 -2.09375 L 17.78125 -13.875 L 9.125 -13.875 L 9.125 -2.09375 C 9.125 -1.425781 8.789062 -0.910156 8.125 -0.546875 C 7.457031 -0.179688 6.660156 0 5.734375 0 C 4.804688 0 4.007812 -0.179688 3.34375 -0.546875 C 2.675781 -0.910156 2.34375 -1.425781 2.34375 -2.09375 Z M 2.34375 -2.09375 "/></g></g></g><g fill="#555588" fill-opacity="1"><g transform="translate(123.631267, 122.193354)"><g><path d="M 0.171875 -2.78125 C 0.171875 -2.863281 0.203125 -3.023438 0.265625 -3.265625 L 8.34375 -29.78125 C 8.582031 -30.507812 9.113281 -31.066406 9.9375 -31.453125 C 10.757812 -31.847656 11.707031 -32.046875 12.78125 -32.046875 C 13.851562 -32.046875 14.800781 -31.847656 15.625 -31.453125 C 16.457031 -31.066406 16.988281 -30.507812 17.21875 -29.78125 L 25.34375 -3.265625 C 25.40625 -3.023438 25.4375 -2.863281 25.4375 -2.78125 C 25.4375 -2.03125 24.960938 -1.378906 24.015625 -0.828125 C 23.078125 -0.273438 22.101562 0 21.09375 0 C 19.84375 0 19.101562 -0.421875 18.875 -1.265625 L 17.390625 -6.703125 L 8.21875 -6.703125 L 6.734375 -1.265625 C 6.503906 -0.421875 5.765625 0 4.515625 0 C 3.503906 0 2.523438 -0.273438 1.578125 -0.828125 C 0.640625 -1.378906 0.171875 -2.03125 0.171875 -2.78125 Z M 9.609375 -11.921875 L 15.953125 -11.921875 L 12.78125 -23.5625 Z M 9.609375 -11.921875 "/></g></g></g><g fill="#555588" fill-opacity="1"><g transform="translate(152.237717, 122.193354)"><g><path d="M 2.34375 -2.09375 L 2.34375 -29.75 C 2.34375 -30.414062 2.675781 -30.921875 3.34375 -31.265625 C 4.007812 -31.609375 4.804688 -31.78125 5.734375 -31.78125 C 6.660156 -31.78125 7.457031 -31.609375 8.125 -31.265625 C 8.789062 -30.921875 9.125 -30.414062 9.125 -29.75 L 9.125 -5.90625 L 19.046875 -5.90625 C 19.648438 -5.90625 20.125 -5.613281 20.46875 -5.03125 C 20.820312 -4.457031 21 -3.765625 21 -2.953125 C 21 -2.140625 20.820312 -1.441406 20.46875 -0.859375 C 20.125 -0.285156 19.648438 0 19.046875 0 L 5.3125 0 C 4.5 0 3.800781 -0.179688 3.21875 -0.546875 C 2.632812 -0.910156 2.34375 -1.425781 2.34375 -2.09375 Z M 2.34375 -2.09375 "/></g></g></g><g fill="#555588" fill-opacity="1"><g transform="translate(176.627245, 122.193354)"><g><path d="M 2.34375 -2.09375 L 2.34375 -29.75 C 2.34375 -30.414062 2.675781 -30.921875 3.34375 -31.265625 C 4.007812 -31.609375 4.804688 -31.78125 5.734375 -31.78125 C 6.660156 -31.78125 7.457031 -31.609375 8.125 -31.265625 C 8.789062 -30.921875 9.125 -30.414062 9.125 -29.75 L 9.125 -5.90625 L 19.046875 -5.90625 C 19.648438 -5.90625 20.125 -5.613281 20.46875 -5.03125 C 20.820312 -4.457031 21 -3.765625 21 -2.953125 C 21 -2.140625 20.820312 -1.441406 20.46875 -0.859375 C 20.125 -0.285156 19.648438 0 19.046875 0 L 5.3125 0 C 4.5 0 3.800781 -0.179688 3.21875 -0.546875 C 2.632812 -0.910156 2.34375 -1.425781 2.34375 -2.09375 Z M 2.34375 -2.09375 "/></g></g></g><g fill="#555588" fill-opacity="1"><g transform="translate(201.016779, 122.193354)"><g><path d="M 2.34375 -2.09375 L 2.34375 -29.703125 C 2.34375 -30.367188 2.632812 -30.878906 3.21875 -31.234375 C 3.800781 -31.597656 4.5 -31.78125 5.3125 -31.78125 L 20.78125 -31.78125 C 21.445312 -31.78125 21.953125 -31.488281 22.296875 -30.90625 C 22.648438 -30.332031 22.828125 -29.65625 22.828125 -28.875 C 22.828125 -28.03125 22.644531 -27.316406 22.28125 -26.734375 C 21.925781 -26.160156 21.425781 -25.875 20.78125 -25.875 L 9.125 -25.875 L 9.125 -18.53125 L 15.65625 -18.53125 C 16.289062 -18.53125 16.789062 -18.265625 17.15625 -17.734375 C 17.519531 -17.210938 17.703125 -16.59375 17.703125 -15.875 C 17.703125 -15.207031 17.523438 -14.613281 17.171875 -14.09375 C 16.828125 -13.570312 16.320312 -13.3125 15.65625 -13.3125 L 9.125 -13.3125 L 9.125 -5.90625 L 20.78125 -5.90625 C 21.425781 -5.90625 21.925781 -5.613281 22.28125 -5.03125 C 22.644531 -4.457031 22.828125 -3.75 22.828125 -2.90625 C 22.828125 -2.125 22.648438 -1.441406 22.296875 -0.859375 C 21.953125 -0.285156 21.445312 0 20.78125 0 L 5.3125 0 C 4.5 0 3.800781 -0.179688 3.21875 -0.546875 C 2.632812 -0.910156 2.34375 -1.425781 2.34375 -2.09375 Z M 2.34375 -2.09375 "/></g></g></g><g fill="#555588" fill-opacity="1"><g transform="translate(227.449549, 122.193354)"><g><path d="M 2.34375 -2.09375 L 2.34375 -29.703125 C 2.34375 -30.367188 2.675781 -30.878906 3.34375 -31.234375 C 4.007812 -31.597656 4.804688 -31.78125 5.734375 -31.78125 C 7.046875 -31.78125 8.007812 -31.59375 8.625 -31.21875 C 9.25 -30.84375 9.953125 -29.898438 10.734375 -28.390625 L 17.78125 -14.953125 L 17.78125 -29.75 C 17.78125 -30.414062 18.113281 -30.921875 18.78125 -31.265625 C 19.445312 -31.609375 20.242188 -31.78125 21.171875 -31.78125 C 22.097656 -31.78125 22.894531 -31.609375 23.5625 -31.265625 C 24.226562 -30.921875 24.5625 -30.414062 24.5625 -29.75 L 24.5625 -2.09375 C 24.5625 -1.425781 24.226562 -0.910156 23.5625 -0.546875 C 22.894531 -0.179688 22.097656 0 21.171875 0 C 19.316406 0 18.054688 -0.609375 17.390625 -1.828125 L 9.125 -16.875 L 9.125 -2.09375 C 9.125 -1.425781 8.789062 -0.910156 8.125 -0.546875 C 7.457031 -0.179688 6.660156 0 5.734375 0 C 4.804688 0 4.007812 -0.179688 3.34375 -0.546875 C 2.675781 -0.910156 2.34375 -1.425781 2.34375 -2.09375 Z M 2.34375 -2.09375 "/></g></g></g><g fill="#555588" fill-opacity="1"><g transform="translate(257.360207, 122.193354)"><g><path d="M 2 -10 L 2 -21.53125 C 2 -25.0625 2.960938 -27.648438 4.890625 -29.296875 C 6.816406 -30.953125 9.332031 -31.78125 12.4375 -31.78125 C 15.625 -31.78125 18.238281 -31.007812 20.28125 -29.46875 C 22.320312 -27.9375 23.34375 -25.828125 23.34375 -23.140625 C 23.34375 -21.890625 23.082031 -21.039062 22.5625 -20.59375 C 22.039062 -20.144531 21.171875 -19.921875 19.953125 -19.921875 C 17.722656 -19.921875 16.59375 -20.597656 16.5625 -21.953125 C 16.5625 -22.359375 16.546875 -22.695312 16.515625 -22.96875 C 16.492188 -23.25 16.410156 -23.59375 16.265625 -24 C 16.117188 -24.40625 15.914062 -24.722656 15.65625 -24.953125 C 15.394531 -25.191406 15.007812 -25.40625 14.5 -25.59375 C 13.988281 -25.78125 13.390625 -25.875 12.703125 -25.875 C 10.085938 -25.875 8.78125 -24.425781 8.78125 -21.53125 L 8.78125 -10 C 8.78125 -7.101562 10.070312 -5.65625 12.65625 -5.65625 C 15.257812 -5.65625 16.5625 -7.101562 16.5625 -10 L 16.5625 -11.484375 L 14 -11.484375 C 13.363281 -11.484375 12.863281 -11.734375 12.5 -12.234375 C 12.132812 -12.742188 11.953125 -13.363281 11.953125 -14.09375 C 11.953125 -14.757812 12.140625 -15.359375 12.515625 -15.890625 C 12.898438 -16.429688 13.394531 -16.703125 14 -16.703125 L 21.3125 -16.703125 C 21.945312 -16.703125 22.441406 -16.488281 22.796875 -16.0625 C 23.160156 -15.644531 23.34375 -15.144531 23.34375 -14.5625 L 23.34375 -10 C 23.34375 -6.46875 22.375 -3.875 20.4375 -2.21875 C 18.5 -0.5625 15.90625 0.265625 12.65625 0.265625 C 9.4375 0.265625 6.851562 -0.5625 4.90625 -2.21875 C 2.96875 -3.875 2 -6.46875 2 -10 Z M 2 -10 "/></g></g></g><g fill="#555588" fill-opacity="1"><g transform="translate(285.271091, 122.193354)"><g><path d="M 2.34375 -2.09375 L 2.34375 -29.703125 C 2.34375 -30.367188 2.632812 -30.878906 3.21875 -31.234375 C 3.800781 -31.597656 4.5 -31.78125 5.3125 -31.78125 L 20.78125 -31.78125 C 21.445312 -31.78125 21.953125 -31.488281 22.296875 -30.90625 C 22.648438 -30.332031 22.828125 -29.65625 22.828125 -28.875 C 22.828125 -28.03125 22.644531 -27.316406 22.28125 -26.734375 C 21.925781 -26.160156 21.425781 -25.875 20.78125 -25.875 L 9.125 -25.875 L 9.125 -18.53125 L 15.65625 -18.53125 C 16.289062 -18.53125 16.789062 -18.265625 17.15625 -17.734375 C 17.519531 -17.210938 17.703125 -16.59375 17.703125 -15.875 C 17.703125 -15.207031 17.523438 -14.613281 17.171875 -14.09375 C 16.828125 -13.570312 16.320312 -13.3125 15.65625 -13.3125 L 9.125 -13.3125 L 9.125 -5.90625 L 20.78125 -5.90625 C 21.425781 -5.90625 21.925781 -5.613281 22.28125 -5.03125 C 22.644531 -4.457031 22.828125 -3.75 22.828125 -2.90625 C 22.828125 -2.125 22.648438 -1.441406 22.296875 -0.859375 C 21.953125 -0.285156 21.445312 0 20.78125 0 L 5.3125 0 C 4.5 0 3.800781 -0.179688 3.21875 -0.546875 C 2.632812 -0.910156 2.34375 -1.425781 2.34375 -2.09375 Z M 2.34375 -2.09375 "/></g></g></g><g fill="#000000" fill-opacity="1"><g transform="translate(121.766582, 138.890223)"><g><path d="M 3.640625 -1.09375 C 3.898438 -1.09375 4.117188 -1.125 4.296875 -1.1875 C 4.472656 -1.25 4.613281 -1.332031 4.71875 -1.4375 C 4.820312 -1.539062 4.894531 -1.660156 4.9375 -1.796875 C 4.988281 -1.929688 5.015625 -2.078125 5.015625 -2.234375 C 5.015625 -2.398438 4.988281 -2.546875 4.9375 -2.671875 C 4.882812 -2.804688 4.800781 -2.914062 4.6875 -3 C 4.582031 -3.09375 4.441406 -3.160156 4.265625 -3.203125 C 4.085938 -3.253906 3.878906 -3.28125 3.640625 -3.28125 L 2.234375 -3.28125 L 2.234375 -1.09375 Z M 2.234375 -6.421875 L 2.234375 -4.25 L 3.34375 -4.25 C 3.820312 -4.25 4.179688 -4.332031 4.421875 -4.5 C 4.660156 -4.675781 4.78125 -4.957031 4.78125 -5.34375 C 4.78125 -5.726562 4.671875 -6.003906 4.453125 -6.171875 C 4.234375 -6.335938 3.890625 -6.421875 3.421875 -6.421875 Z M 3.421875 -7.5 C 3.910156 -7.5 4.328125 -7.453125 4.671875 -7.359375 C 5.023438 -7.265625 5.3125 -7.128906 5.53125 -6.953125 C 5.757812 -6.785156 5.925781 -6.578125 6.03125 -6.328125 C 6.132812 -6.085938 6.1875 -5.8125 6.1875 -5.5 C 6.1875 -5.320312 6.160156 -5.148438 6.109375 -4.984375 C 6.054688 -4.828125 5.972656 -4.679688 5.859375 -4.546875 C 5.753906 -4.410156 5.617188 -4.285156 5.453125 -4.171875 C 5.285156 -4.054688 5.082031 -3.957031 4.84375 -3.875 C 5.875 -3.644531 6.390625 -3.085938 6.390625 -2.203125 C 6.390625 -1.890625 6.328125 -1.597656 6.203125 -1.328125 C 6.085938 -1.054688 5.914062 -0.820312 5.6875 -0.625 C 5.457031 -0.425781 5.171875 -0.269531 4.828125 -0.15625 C 4.492188 -0.0507812 4.109375 0 3.671875 0 L 0.828125 0 L 0.828125 -7.5 Z M 3.421875 -7.5 "/></g></g></g><g fill="#000000" fill-opacity="1"><g transform="translate(129.310925, 138.890223)"><g><path d="M 4.0625 -2.90625 L 4.0625 0 L 2.671875 0 L 2.671875 -2.90625 L -0.0625 -7.5 L 1.15625 -7.5 C 1.28125 -7.5 1.378906 -7.46875 1.453125 -7.40625 C 1.523438 -7.351562 1.582031 -7.28125 1.625 -7.1875 L 3 -4.6875 C 3.082031 -4.539062 3.148438 -4.398438 3.203125 -4.265625 C 3.265625 -4.128906 3.320312 -4 3.375 -3.875 C 3.414062 -4 3.460938 -4.128906 3.515625 -4.265625 C 3.578125 -4.398438 3.648438 -4.539062 3.734375 -4.6875 L 5.09375 -7.1875 C 5.132812 -7.257812 5.191406 -7.328125 5.265625 -7.390625 C 5.335938 -7.460938 5.4375 -7.5 5.5625 -7.5 L 6.796875 -7.5 Z M 4.0625 -2.90625 "/></g></g></g><g fill="#000000" fill-opacity="1"><g transform="translate(136.746391, 138.890223)"><g/></g></g><g fill="#000000" fill-opacity="1"><g transform="translate(139.982065, 138.890223)"><g><path d="M 5.984375 -1.765625 C 6.054688 -1.765625 6.125 -1.738281 6.1875 -1.6875 L 6.734375 -1.078125 C 6.429688 -0.703125 6.054688 -0.414062 5.609375 -0.21875 C 5.171875 -0.0195312 4.640625 0.078125 4.015625 0.078125 C 3.460938 0.078125 2.960938 -0.015625 2.515625 -0.203125 C 2.066406 -0.390625 1.6875 -0.648438 1.375 -0.984375 C 1.0625 -1.328125 0.820312 -1.734375 0.65625 -2.203125 C 0.488281 -2.679688 0.40625 -3.195312 0.40625 -3.75 C 0.40625 -4.3125 0.492188 -4.828125 0.671875 -5.296875 C 0.847656 -5.765625 1.097656 -6.164062 1.421875 -6.5 C 1.753906 -6.84375 2.144531 -7.109375 2.59375 -7.296875 C 3.050781 -7.484375 3.554688 -7.578125 4.109375 -7.578125 C 4.648438 -7.578125 5.128906 -7.488281 5.546875 -7.3125 C 5.972656 -7.132812 6.335938 -6.898438 6.640625 -6.609375 L 6.171875 -5.953125 C 6.140625 -5.910156 6.101562 -5.875 6.0625 -5.84375 C 6.019531 -5.820312 5.960938 -5.8125 5.890625 -5.8125 C 5.835938 -5.8125 5.78125 -5.820312 5.71875 -5.84375 C 5.664062 -5.875 5.609375 -5.910156 5.546875 -5.953125 C 5.484375 -5.992188 5.40625 -6.039062 5.3125 -6.09375 C 5.226562 -6.144531 5.128906 -6.191406 5.015625 -6.234375 C 4.898438 -6.285156 4.765625 -6.320312 4.609375 -6.34375 C 4.460938 -6.375 4.289062 -6.390625 4.09375 -6.390625 C 3.757812 -6.390625 3.453125 -6.328125 3.171875 -6.203125 C 2.898438 -6.085938 2.660156 -5.914062 2.453125 -5.6875 C 2.253906 -5.46875 2.097656 -5.191406 1.984375 -4.859375 C 1.878906 -4.535156 1.828125 -4.164062 1.828125 -3.75 C 1.828125 -3.332031 1.882812 -2.957031 2 -2.625 C 2.125 -2.289062 2.285156 -2.007812 2.484375 -1.78125 C 2.691406 -1.5625 2.929688 -1.390625 3.203125 -1.265625 C 3.484375 -1.148438 3.785156 -1.09375 4.109375 -1.09375 C 4.296875 -1.09375 4.460938 -1.101562 4.609375 -1.125 C 4.765625 -1.144531 4.90625 -1.175781 5.03125 -1.21875 C 5.164062 -1.269531 5.289062 -1.332031 5.40625 -1.40625 C 5.53125 -1.476562 5.648438 -1.566406 5.765625 -1.671875 C 5.796875 -1.703125 5.828125 -1.722656 5.859375 -1.734375 C 5.898438 -1.753906 5.941406 -1.765625 5.984375 -1.765625 Z M 5.984375 -1.765625 "/></g></g></g><g fill="#000000" fill-opacity="1"><g transform="translate(147.557526, 138.890223)"><g><path d="M 4.796875 -2.828125 L 3.890625 -5.328125 C 3.835938 -5.441406 3.785156 -5.570312 3.734375 -5.71875 C 3.691406 -5.875 3.644531 -6.039062 3.59375 -6.21875 C 3.550781 -6.039062 3.503906 -5.875 3.453125 -5.71875 C 3.410156 -5.5625 3.363281 -5.425781 3.3125 -5.3125 L 2.40625 -2.828125 Z M 7.265625 0 L 6.1875 0 C 6.0625 0 5.960938 -0.03125 5.890625 -0.09375 C 5.816406 -0.15625 5.757812 -0.226562 5.71875 -0.3125 L 5.15625 -1.84375 L 2.046875 -1.84375 L 1.484375 -0.3125 C 1.460938 -0.238281 1.410156 -0.164062 1.328125 -0.09375 C 1.242188 -0.03125 1.144531 0 1.03125 0 L -0.0625 0 L 2.890625 -7.5 L 4.3125 -7.5 Z M 7.265625 0 "/></g></g></g><g fill="#000000" fill-opacity="1"><g transform="translate(155.475185, 138.890223)"><g><path d="M 5.234375 -1.15625 L 5.234375 0 L 0.828125 0 L 0.828125 -7.5 L 2.234375 -7.5 L 2.234375 -1.15625 Z M 5.234375 -1.15625 "/></g></g></g><g fill="#000000" fill-opacity="1"><g transform="translate(161.578122, 138.890223)"><g><path d="M 2.234375 -6.390625 L 2.234375 -4.3125 L 4.859375 -4.3125 L 4.859375 -3.234375 L 2.234375 -3.234375 L 2.234375 -1.109375 L 5.5625 -1.109375 L 5.5625 0 L 0.828125 0 L 0.828125 -7.5 L 5.5625 -7.5 L 5.5625 -6.390625 Z M 2.234375 -6.390625 "/></g></g></g><g fill="#000000" fill-opacity="1"><g transform="translate(168.256591, 138.890223)"><g><path d="M 7.15625 -7.5 L 7.15625 0 L 6.4375 0 C 6.332031 0 6.238281 -0.015625 6.15625 -0.046875 C 6.082031 -0.0859375 6.015625 -0.148438 5.953125 -0.234375 L 2.03125 -5.234375 C 2.050781 -5.003906 2.0625 -4.796875 2.0625 -4.609375 L 2.0625 0 L 0.828125 0 L 0.828125 -7.5 L 1.5625 -7.5 C 1.625 -7.5 1.675781 -7.492188 1.71875 -7.484375 C 1.757812 -7.484375 1.796875 -7.472656 1.828125 -7.453125 C 1.867188 -7.441406 1.898438 -7.421875 1.921875 -7.390625 C 1.953125 -7.359375 1.988281 -7.320312 2.03125 -7.28125 L 5.96875 -2.25 C 5.957031 -2.375 5.945312 -2.492188 5.9375 -2.609375 C 5.925781 -2.734375 5.921875 -2.84375 5.921875 -2.9375 L 5.921875 -7.5 Z M 7.15625 -7.5 "/></g></g></g><g fill="#000000" fill-opacity="1"><g transform="translate(176.962364, 138.890223)"><g/></g></g><g fill="#000000" fill-opacity="1"><g transform="translate(180.198038, 138.890223)"><g><path d="M 5.984375 -1.765625 C 6.054688 -1.765625 6.125 -1.738281 6.1875 -1.6875 L 6.734375 -1.078125 C 6.429688 -0.703125 6.054688 -0.414062 5.609375 -0.21875 C 5.171875 -0.0195312 4.640625 0.078125 4.015625 0.078125 C 3.460938 0.078125 2.960938 -0.015625 2.515625 -0.203125 C 2.066406 -0.390625 1.6875 -0.648438 1.375 -0.984375 C 1.0625 -1.328125 0.820312 -1.734375 0.65625 -2.203125 C 0.488281 -2.679688 0.40625 -3.195312 0.40625 -3.75 C 0.40625 -4.3125 0.492188 -4.828125 0.671875 -5.296875 C 0.847656 -5.765625 1.097656 -6.164062 1.421875 -6.5 C 1.753906 -6.84375 2.144531 -7.109375 2.59375 -7.296875 C 3.050781 -7.484375 3.554688 -7.578125 4.109375 -7.578125 C 4.648438 -7.578125 5.128906 -7.488281 5.546875 -7.3125 C 5.972656 -7.132812 6.335938 -6.898438 6.640625 -6.609375 L 6.171875 -5.953125 C 6.140625 -5.910156 6.101562 -5.875 6.0625 -5.84375 C 6.019531 -5.820312 5.960938 -5.8125 5.890625 -5.8125 C 5.835938 -5.8125 5.78125 -5.820312 5.71875 -5.84375 C 5.664062 -5.875 5.609375 -5.910156 5.546875 -5.953125 C 5.484375 -5.992188 5.40625 -6.039062 5.3125 -6.09375 C 5.226562 -6.144531 5.128906 -6.191406 5.015625 -6.234375 C 4.898438 -6.285156 4.765625 -6.320312 4.609375 -6.34375 C 4.460938 -6.375 4.289062 -6.390625 4.09375 -6.390625 C 3.757812 -6.390625 3.453125 -6.328125 3.171875 -6.203125 C 2.898438 -6.085938 2.660156 -5.914062 2.453125 -5.6875 C 2.253906 -5.46875 2.097656 -5.191406 1.984375 -4.859375 C 1.878906 -4.535156 1.828125 -4.164062 1.828125 -3.75 C 1.828125 -3.332031 1.882812 -2.957031 2 -2.625 C 2.125 -2.289062 2.285156 -2.007812 2.484375 -1.78125 C 2.691406 -1.5625 2.929688 -1.390625 3.203125 -1.265625 C 3.484375 -1.148438 3.785156 -1.09375 4.109375 -1.09375 C 4.296875 -1.09375 4.460938 -1.101562 4.609375 -1.125 C 4.765625 -1.144531 4.90625 -1.175781 5.03125 -1.21875 C 5.164062 -1.269531 5.289062 -1.332031 5.40625 -1.40625 C 5.53125 -1.476562 5.648438 -1.566406 5.765625 -1.671875 C 5.796875 -1.703125 5.828125 -1.722656 5.859375 -1.734375 C 5.898438 -1.753906 5.941406 -1.765625 5.984375 -1.765625 Z M 5.984375 -1.765625 "/></g></g></g><g fill="#000000" fill-opacity="1"><g transform="translate(187.773499, 138.890223)"><g><path d="M 3.109375 -3.9375 C 3.367188 -3.9375 3.59375 -3.96875 3.78125 -4.03125 C 3.976562 -4.09375 4.140625 -4.179688 4.265625 -4.296875 C 4.398438 -4.421875 4.492188 -4.5625 4.546875 -4.71875 C 4.609375 -4.875 4.640625 -5.046875 4.640625 -5.234375 C 4.640625 -5.617188 4.515625 -5.910156 4.265625 -6.109375 C 4.015625 -6.316406 3.632812 -6.421875 3.125 -6.421875 L 2.234375 -6.421875 L 2.234375 -3.9375 Z M 6.6875 0 L 5.4375 0 C 5.195312 0 5.019531 -0.09375 4.90625 -0.28125 L 3.328125 -2.6875 C 3.273438 -2.769531 3.210938 -2.832031 3.140625 -2.875 C 3.066406 -2.914062 2.960938 -2.9375 2.828125 -2.9375 L 2.234375 -2.9375 L 2.234375 0 L 0.828125 0 L 0.828125 -7.5 L 3.125 -7.5 C 3.632812 -7.5 4.070312 -7.445312 4.4375 -7.34375 C 4.800781 -7.238281 5.097656 -7.085938 5.328125 -6.890625 C 5.566406 -6.703125 5.738281 -6.476562 5.84375 -6.21875 C 5.957031 -5.957031 6.015625 -5.664062 6.015625 -5.34375 C 6.015625 -5.09375 5.976562 -4.851562 5.90625 -4.625 C 5.832031 -4.40625 5.722656 -4.203125 5.578125 -4.015625 C 5.441406 -3.828125 5.269531 -3.664062 5.0625 -3.53125 C 4.851562 -3.394531 4.617188 -3.285156 4.359375 -3.203125 C 4.453125 -3.148438 4.535156 -3.085938 4.609375 -3.015625 C 4.679688 -2.953125 4.75 -2.867188 4.8125 -2.765625 Z M 6.6875 0 "/></g></g></g><g fill="#000000" fill-opacity="1"><g transform="translate(195.157107, 138.890223)"><g><path d="M 2.234375 0 L 0.828125 0 L 0.828125 -7.5 L 2.234375 -7.5 Z M 2.234375 0 "/></g></g></g><g fill="#000000" fill-opacity="1"><g transform="translate(198.947562, 138.890223)"><g><path d="M 6.078125 -6.359375 L 3.8125 -6.359375 L 3.8125 0 L 2.421875 0 L 2.421875 -6.359375 L 0.15625 -6.359375 L 0.15625 -7.5 L 6.078125 -7.5 Z M 6.078125 -6.359375 "/></g></g></g><g fill="#000000" fill-opacity="1"><g transform="translate(205.885268, 138.890223)"><g><path d="M 5.984375 -1.765625 C 6.054688 -1.765625 6.125 -1.738281 6.1875 -1.6875 L 6.734375 -1.078125 C 6.429688 -0.703125 6.054688 -0.414062 5.609375 -0.21875 C 5.171875 -0.0195312 4.640625 0.078125 4.015625 0.078125 C 3.460938 0.078125 2.960938 -0.015625 2.515625 -0.203125 C 2.066406 -0.390625 1.6875 -0.648438 1.375 -0.984375 C 1.0625 -1.328125 0.820312 -1.734375 0.65625 -2.203125 C 0.488281 -2.679688 0.40625 -3.195312 0.40625 -3.75 C 0.40625 -4.3125 0.492188 -4.828125 0.671875 -5.296875 C 0.847656 -5.765625 1.097656 -6.164062 1.421875 -6.5 C 1.753906 -6.84375 2.144531 -7.109375 2.59375 -7.296875 C 3.050781 -7.484375 3.554688 -7.578125 4.109375 -7.578125 C 4.648438 -7.578125 5.128906 -7.488281 5.546875 -7.3125 C 5.972656 -7.132812 6.335938 -6.898438 6.640625 -6.609375 L 6.171875 -5.953125 C 6.140625 -5.910156 6.101562 -5.875 6.0625 -5.84375 C 6.019531 -5.820312 5.960938 -5.8125 5.890625 -5.8125 C 5.835938 -5.8125 5.78125 -5.820312 5.71875 -5.84375 C 5.664062 -5.875 5.609375 -5.910156 5.546875 -5.953125 C 5.484375 -5.992188 5.40625 -6.039062 5.3125 -6.09375 C 5.226562 -6.144531 5.128906 -6.191406 5.015625 -6.234375 C 4.898438 -6.285156 4.765625 -6.320312 4.609375 -6.34375 C 4.460938 -6.375 4.289062 -6.390625 4.09375 -6.390625 C 3.757812 -6.390625 3.453125 -6.328125 3.171875 -6.203125 C 2.898438 -6.085938 2.660156 -5.914062 2.453125 -5.6875 C 2.253906 -5.46875 2.097656 -5.191406 1.984375 -4.859375 C 1.878906 -4.535156 1.828125 -4.164062 1.828125 -3.75 C 1.828125 -3.332031 1.882812 -2.957031 2 -2.625 C 2.125 -2.289062 2.285156 -2.007812 2.484375 -1.78125 C 2.691406 -1.5625 2.929688 -1.390625 3.203125 -1.265625 C 3.484375 -1.148438 3.785156 -1.09375 4.109375 -1.09375 C 4.296875 -1.09375 4.460938 -1.101562 4.609375 -1.125 C 4.765625 -1.144531 4.90625 -1.175781 5.03125 -1.21875 C 5.164062 -1.269531 5.289062 -1.332031 5.40625 -1.40625 C 5.53125 -1.476562 5.648438 -1.566406 5.765625 -1.671875 C 5.796875 -1.703125 5.828125 -1.722656 5.859375 -1.734375 C 5.898438 -1.753906 5.941406 -1.765625 5.984375 -1.765625 Z M 5.984375 -1.765625 "/></g></g></g><g fill="#000000" fill-opacity="1"><g transform="translate(213.460729, 138.890223)"><g><path d="M 7.15625 -7.5 L 7.15625 0 L 5.765625 0 L 5.765625 -3.28125 L 2.234375 -3.28125 L 2.234375 0 L 0.828125 0 L 0.828125 -7.5 L 2.234375 -7.5 L 2.234375 -4.28125 L 5.765625 -4.28125 L 5.765625 -7.5 Z M 7.15625 -7.5 "/></g></g></g><g fill="#000000" fill-opacity="1"><g transform="translate(222.166501, 138.890223)"><g><path d="M 2.234375 -6.390625 L 2.234375 -4.171875 L 5.046875 -4.171875 L 5.046875 -3.0625 L 2.234375 -3.0625 L 2.234375 0 L 0.828125 0 L 0.828125 -7.5 L 5.5625 -7.5 L 5.5625 -6.390625 Z M 2.234375 -6.390625 "/></g></g></g><g fill="#000000" fill-opacity="1"><g transform="translate(228.751632, 138.890223)"><g><path d="M 2.234375 0 L 0.828125 0 L 0.828125 -7.5 L 2.234375 -7.5 Z M 2.234375 0 "/></g></g></g><g fill="#000000" fill-opacity="1"><g transform="translate(232.542087, 138.890223)"><g><path d="M 2.234375 -6.390625 L 2.234375 -4.3125 L 4.859375 -4.3125 L 4.859375 -3.234375 L 2.234375 -3.234375 L 2.234375 -1.109375 L 5.5625 -1.109375 L 5.5625 0 L 0.828125 0 L 0.828125 -7.5 L 5.5625 -7.5 L 5.5625 -6.390625 Z M 2.234375 -6.390625 "/></g></g></g><g fill="#000000" fill-opacity="1"><g transform="translate(239.220556, 138.890223)"><g><path d="M 5.234375 -1.15625 L 5.234375 0 L 0.828125 0 L 0.828125 -7.5 L 2.234375 -7.5 L 2.234375 -1.15625 Z M 5.234375 -1.15625 "/></g></g></g><g fill="#000000" fill-opacity="1"><g transform="translate(245.323493, 138.890223)"><g><path d="M 7.5 -3.75 C 7.5 -3.195312 7.40625 -2.691406 7.21875 -2.234375 C 7.039062 -1.773438 6.785156 -1.378906 6.453125 -1.046875 C 6.117188 -0.710938 5.71875 -0.453125 5.25 -0.265625 C 4.78125 -0.0859375 4.257812 0 3.6875 0 L 0.828125 0 L 0.828125 -7.5 L 3.6875 -7.5 C 4.257812 -7.5 4.78125 -7.40625 5.25 -7.21875 C 5.71875 -7.039062 6.117188 -6.785156 6.453125 -6.453125 C 6.785156 -6.117188 7.039062 -5.722656 7.21875 -5.265625 C 7.40625 -4.804688 7.5 -4.300781 7.5 -3.75 Z M 6.0625 -3.75 C 6.0625 -4.164062 6.003906 -4.535156 5.890625 -4.859375 C 5.785156 -5.179688 5.628906 -5.457031 5.421875 -5.6875 C 5.222656 -5.914062 4.976562 -6.085938 4.6875 -6.203125 C 4.394531 -6.328125 4.0625 -6.390625 3.6875 -6.390625 L 2.234375 -6.390625 L 2.234375 -1.109375 L 3.6875 -1.109375 C 4.0625 -1.109375 4.394531 -1.164062 4.6875 -1.28125 C 4.976562 -1.40625 5.222656 -1.582031 5.421875 -1.8125 C 5.628906 -2.039062 5.785156 -2.316406 5.890625 -2.640625 C 6.003906 -2.972656 6.0625 -3.34375 6.0625 -3.75 Z M 6.0625 -3.75 "/></g></g></g></svg>